<svg width="current" height="current" viewBox="0 0 22 25" fill="none" xmlns="http://www.w3.org/2000/svg">
<g clip-path="url(#clip0_180_1495)">
<path d="M17.9425 13.1676C17.9316 11.1259 18.8426 9.585 20.6866 8.45016C19.6548 6.95372 18.0962 6.1304 16.0382 5.96907C14.0899 5.81331 11.9605 7.1206 11.1812 7.1206C10.3579 7.1206 8.47003 6.0247 6.98823 6.0247C3.92585 6.07477 0.671387 8.50022 0.671387 13.4346C0.671387 14.8921 0.934817 16.3978 1.46168 17.9517C2.16416 19.9933 4.69968 25 7.34496 24.9166C8.72797 24.8832 9.70486 23.9208 11.505 23.9208C13.2502 23.9208 14.1557 24.9166 15.6979 24.9166C18.3651 24.8776 20.6592 20.3271 21.3287 18.2799C17.7505 16.5721 17.9425 13.2733 17.9425 13.1676ZM14.8363 4.03315C16.3345 2.23075 16.1973 0.589675 16.1534 0C14.8308 0.0778816 13.2996 0.912328 12.427 1.94148C11.4665 3.04295 10.9013 4.40587 11.022 5.94126C12.4544 6.05251 13.7606 5.30708 14.8363 4.03315Z" fill="white"/>
</g>
<defs>
<clipPath id="clip0_180_1495">
<rect width="22" height="25" fill="white"/>
</clipPath>
</defs>
</svg>
