<svg width="current" height="current" viewBox="0 0 26 26" fill="none" xmlns="http://www.w3.org/2000/svg">
<path d="M3.25 11.4453C3.25 10.8231 3.25 10.512 3.3302 10.2255C3.40123 9.97166 3.51798 9.73296 3.6747 9.52108C3.85161 9.28188 4.09719 9.09087 4.58834 8.70887L11.9358 2.99415C12.3164 2.69812 12.5067 2.55011 12.7169 2.49322C12.9023 2.44302 13.0977 2.44302 13.2831 2.49322C13.4933 2.55011 13.6836 2.69813 14.0642 2.99415L21.4117 8.70887C21.9028 9.09087 22.1484 9.28188 22.3253 9.52108C22.482 9.73296 22.5988 9.97166 22.6698 10.2255C22.75 10.512 22.75 10.8231 22.75 11.4453V19.2831C22.75 20.4966 22.75 21.1033 22.5138 21.5668C22.3061 21.9745 21.9747 22.3059 21.567 22.5136C21.1035 22.7498 20.4968 22.7498 19.2833 22.7498H6.71667C5.50322 22.7498 4.8965 22.7498 4.43302 22.5136C4.02534 22.3059 3.69388 21.9745 3.48615 21.5668C3.25 21.1033 3.25 20.4966 3.25 19.2831V11.4453Z" stroke="currentColor" stroke-width="2" stroke-linecap="round" stroke-linejoin="round"/>
</svg>
