<svg width="current" height="current" viewBox="0 0 26 25" fill="none" xmlns="http://www.w3.org/2000/svg">
<g opacity="0.9">
<path d="M12.9756 2.34375C15.1165 2.34375 17.0965 2.76041 18.9158 3.59373C20.7351 4.42705 22.1734 5.56021 23.2306 6.99316C24.2878 8.42607 24.8164 9.98911 24.8164 11.6822C24.8164 13.3753 24.2878 14.9405 23.2306 16.3779C22.1734 17.8153 20.7373 18.9506 18.9224 19.7839C17.1075 20.6172 15.1252 21.0339 12.9756 21.0339C12.2972 21.0339 11.5968 20.9854 10.8744 20.8884C7.73794 23.0665 6.06846 24.1688 5.86582 24.1952C5.7689 24.2305 5.67637 24.2261 5.58828 24.182C5.55303 24.1556 5.52661 24.1203 5.50898 24.0762C5.49136 24.0321 5.48257 23.9924 5.48257 23.9571V23.9042C5.53545 23.5603 5.93628 22.1274 6.68516 19.6054C4.98479 18.7588 3.63464 17.6367 2.63469 16.239C1.63474 14.8414 1.13477 13.3224 1.13477 11.6822C1.13477 9.98911 1.66337 8.42607 2.72059 6.99316C3.77781 5.56021 5.21606 4.42705 7.03535 3.59373C8.85464 2.76041 10.8347 2.34375 12.9756 2.34375Z" fill="black"/>
</g>
</svg>
