<svg width="current" height="current" viewBox="0 0 26 26" fill="none" xmlns="http://www.w3.org/2000/svg">
<path d="M22.75 12.9998L9.75 12.9998M22.75 6.49984L9.75 6.49984M22.75 19.4998L9.75 19.4998M5.41667 12.9998C5.41667 13.5981 4.93164 14.0832 4.33333 14.0832C3.73502 14.0832 3.25 13.5981 3.25 12.9998C3.25 12.4015 3.73502 11.9165 4.33333 11.9165C4.93164 11.9165 5.41667 12.4015 5.41667 12.9998ZM5.41667 6.49984C5.41667 7.09815 4.93164 7.58317 4.33333 7.58317C3.73502 7.58317 3.25 7.09815 3.25 6.49984C3.25 5.90153 3.73502 5.4165 4.33333 5.4165C4.93164 5.4165 5.41667 5.90153 5.41667 6.49984ZM5.41667 19.4998C5.41667 20.0981 4.93164 20.5832 4.33333 20.5832C3.73502 20.5832 3.25 20.0981 3.25 19.4998C3.25 18.9015 3.73502 18.4165 4.33333 18.4165C4.93164 18.4165 5.41667 18.9015 5.41667 19.4998Z" stroke="currentColor" stroke-width="2" stroke-linecap="round" stroke-linejoin="round"/>
</svg>
