<svg width="current" height="current" viewBox="0 0 36 36" fill="none" xmlns="http://www.w3.org/2000/svg">
<path d="M3 18C3 26.2843 9.71573 33 18 33C20.4853 33 22.5 30.9853 22.5 28.5V27.75C22.5 27.0534 22.5 26.7051 22.5385 26.4126C22.8043 24.3933 24.3933 22.8043 26.4126 22.5385C26.7051 22.5 27.0534 22.5 27.75 22.5H28.5C30.9853 22.5 33 20.4853 33 18C33 9.71573 26.2843 3 18 3C9.71573 3 3 9.71573 3 18Z" stroke="currentColor" stroke-width="4" stroke-linecap="round" stroke-linejoin="round"/>
<path d="M10.5 19.5C11.3284 19.5 12 18.8284 12 18C12 17.1716 11.3284 16.5 10.5 16.5C9.67157 16.5 9 17.1716 9 18C9 18.8284 9.67157 19.5 10.5 19.5Z" stroke="currentColor" stroke-width="4" stroke-linecap="round" stroke-linejoin="round"/>
<path d="M24 13.5C24.8284 13.5 25.5 12.8284 25.5 12C25.5 11.1716 24.8284 10.5 24 10.5C23.1716 10.5 22.5 11.1716 22.5 12C22.5 12.8284 23.1716 13.5 24 13.5Z" stroke="currentColor" stroke-width="4" stroke-linecap="round" stroke-linejoin="round"/>
<path d="M15 12C15.8284 12 16.5 11.3284 16.5 10.5C16.5 9.67157 15.8284 9 15 9C14.1716 9 13.5 9.67157 13.5 10.5C13.5 11.3284 14.1716 12 15 12Z" stroke="currentColor" stroke-width="4" stroke-linecap="round" stroke-linejoin="round"/>
</svg>
